<mxfile host="app.diagrams.net" agent="Mozilla/5.0 (Windows NT 10.0; Win64; x64) AppleWebKit/537.36 (KHTML, like Gecko) Chrome/131.0.0.0 Safari/537.36 Edg/131.0.0.0" version="26.0.4">
  <diagram name="Page-1" id="yaJmCxUXA4rCr9JQ8foh">
    <mxGraphModel dx="2453" dy="1473" grid="1" gridSize="10" guides="1" tooltips="1" connect="1" arrows="1" fold="1" page="0" pageScale="1" pageWidth="850" pageHeight="1100" math="0" shadow="0">
      <root>
        <mxCell id="0" />
        <mxCell id="1" parent="0" />
        <mxCell id="kn9OcYIsBigCMdOipjAs-10" value="Chi nhánh" style="rounded=0;whiteSpace=wrap;html=1;" parent="1" vertex="1">
          <mxGeometry x="30" y="505" width="120" height="30" as="geometry" />
        </mxCell>
        <mxCell id="kn9OcYIsBigCMdOipjAs-11" value="Nhân viên" style="rounded=0;whiteSpace=wrap;html=1;" parent="1" vertex="1">
          <mxGeometry x="290" y="365" width="120" height="30" as="geometry" />
        </mxCell>
        <mxCell id="kn9OcYIsBigCMdOipjAs-12" value="Bất động sản&amp;nbsp;" style="rounded=0;whiteSpace=wrap;html=1;" parent="1" vertex="1">
          <mxGeometry x="300" y="530" width="120" height="30" as="geometry" />
        </mxCell>
        <mxCell id="kn9OcYIsBigCMdOipjAs-13" value="&lt;u&gt;mã chi nhánh&lt;/u&gt;" style="ellipse;whiteSpace=wrap;html=1;" parent="1" vertex="1">
          <mxGeometry x="10" y="395" width="70" height="55" as="geometry" />
        </mxCell>
        <mxCell id="kn9OcYIsBigCMdOipjAs-14" value="rao bán" style="rhombus;whiteSpace=wrap;html=1;" parent="1" vertex="1">
          <mxGeometry x="200" y="535" width="70" height="60" as="geometry" />
        </mxCell>
        <mxCell id="kn9OcYIsBigCMdOipjAs-15" value="" style="endArrow=none;html=1;rounded=0;" parent="1" source="kn9OcYIsBigCMdOipjAs-13" target="kn9OcYIsBigCMdOipjAs-10" edge="1">
          <mxGeometry width="50" height="50" relative="1" as="geometry">
            <mxPoint x="100" y="575" as="sourcePoint" />
            <mxPoint x="150" y="525" as="targetPoint" />
          </mxGeometry>
        </mxCell>
        <mxCell id="kn9OcYIsBigCMdOipjAs-18" value="" style="endArrow=none;html=1;rounded=0;entryX=0.125;entryY=0.375;entryDx=0;entryDy=0;entryPerimeter=0;" parent="1" source="kn9OcYIsBigCMdOipjAs-10" target="kn9OcYIsBigCMdOipjAs-14" edge="1">
          <mxGeometry width="50" height="50" relative="1" as="geometry">
            <mxPoint x="180" y="525" as="sourcePoint" />
            <mxPoint x="200" y="475" as="targetPoint" />
          </mxGeometry>
        </mxCell>
        <mxCell id="kn9OcYIsBigCMdOipjAs-83" value="1-n" style="edgeLabel;html=1;align=center;verticalAlign=middle;resizable=0;points=[];" parent="kn9OcYIsBigCMdOipjAs-18" vertex="1" connectable="0">
          <mxGeometry x="-0.3294" relative="1" as="geometry">
            <mxPoint as="offset" />
          </mxGeometry>
        </mxCell>
        <mxCell id="kn9OcYIsBigCMdOipjAs-19" value="" style="endArrow=none;html=1;rounded=0;entryX=0;entryY=0.5;entryDx=0;entryDy=0;" parent="1" source="kn9OcYIsBigCMdOipjAs-14" target="kn9OcYIsBigCMdOipjAs-12" edge="1">
          <mxGeometry width="50" height="50" relative="1" as="geometry">
            <mxPoint x="160" y="541" as="sourcePoint" />
            <mxPoint x="240" y="555" as="targetPoint" />
          </mxGeometry>
        </mxCell>
        <mxCell id="kn9OcYIsBigCMdOipjAs-20" value="1-1" style="edgeLabel;html=1;align=center;verticalAlign=middle;resizable=0;points=[];" parent="kn9OcYIsBigCMdOipjAs-19" vertex="1" connectable="0">
          <mxGeometry x="-0.0532" y="-3" relative="1" as="geometry">
            <mxPoint as="offset" />
          </mxGeometry>
        </mxCell>
        <mxCell id="kn9OcYIsBigCMdOipjAs-24" value="có" style="rhombus;whiteSpace=wrap;html=1;" parent="1" vertex="1">
          <mxGeometry x="150" y="350" width="40" height="45" as="geometry" />
        </mxCell>
        <mxCell id="kn9OcYIsBigCMdOipjAs-25" value="" style="endArrow=none;html=1;rounded=0;entryX=0;entryY=1;entryDx=0;entryDy=0;exitX=0.75;exitY=0;exitDx=0;exitDy=0;" parent="1" source="kn9OcYIsBigCMdOipjAs-10" target="kn9OcYIsBigCMdOipjAs-24" edge="1">
          <mxGeometry width="50" height="50" relative="1" as="geometry">
            <mxPoint x="160" y="541" as="sourcePoint" />
            <mxPoint x="240" y="555" as="targetPoint" />
          </mxGeometry>
        </mxCell>
        <mxCell id="kn9OcYIsBigCMdOipjAs-27" value="&lt;div&gt;&lt;br&gt;&lt;/div&gt;&lt;div&gt;&lt;br&gt;&lt;/div&gt;" style="edgeLabel;html=1;align=center;verticalAlign=middle;resizable=0;points=[];" parent="kn9OcYIsBigCMdOipjAs-25" vertex="1" connectable="0">
          <mxGeometry x="-0.0702" y="4" relative="1" as="geometry">
            <mxPoint as="offset" />
          </mxGeometry>
        </mxCell>
        <mxCell id="kn9OcYIsBigCMdOipjAs-82" value="n-n" style="edgeLabel;html=1;align=center;verticalAlign=middle;resizable=0;points=[];" parent="kn9OcYIsBigCMdOipjAs-25" vertex="1" connectable="0">
          <mxGeometry x="-0.024" y="2" relative="1" as="geometry">
            <mxPoint as="offset" />
          </mxGeometry>
        </mxCell>
        <mxCell id="kn9OcYIsBigCMdOipjAs-31" value="&lt;u&gt;mã số bất đông&lt;br&gt;sản&lt;/u&gt;" style="ellipse;whiteSpace=wrap;html=1;" parent="1" vertex="1">
          <mxGeometry x="430" y="430" width="90" height="55" as="geometry" />
        </mxCell>
        <mxCell id="kn9OcYIsBigCMdOipjAs-32" value="" style="endArrow=none;html=1;rounded=0;entryX=1;entryY=0.5;entryDx=0;entryDy=0;exitX=0.082;exitY=0.736;exitDx=0;exitDy=0;exitPerimeter=0;" parent="1" source="kn9OcYIsBigCMdOipjAs-31" target="kn9OcYIsBigCMdOipjAs-12" edge="1">
          <mxGeometry width="50" height="50" relative="1" as="geometry">
            <mxPoint x="88" y="425" as="sourcePoint" />
            <mxPoint x="98" y="515" as="targetPoint" />
          </mxGeometry>
        </mxCell>
        <mxCell id="kn9OcYIsBigCMdOipjAs-33" value="địa chỉ" style="ellipse;whiteSpace=wrap;html=1;" parent="1" vertex="1">
          <mxGeometry x="490" y="492.5" width="80" height="55" as="geometry" />
        </mxCell>
        <mxCell id="kn9OcYIsBigCMdOipjAs-34" value="" style="endArrow=none;html=1;rounded=0;entryX=1;entryY=0.5;entryDx=0;entryDy=0;exitX=0;exitY=0.5;exitDx=0;exitDy=0;" parent="1" source="kn9OcYIsBigCMdOipjAs-33" target="kn9OcYIsBigCMdOipjAs-12" edge="1">
          <mxGeometry width="50" height="50" relative="1" as="geometry">
            <mxPoint x="587" y="510" as="sourcePoint" />
            <mxPoint x="530" y="565" as="targetPoint" />
          </mxGeometry>
        </mxCell>
        <mxCell id="kn9OcYIsBigCMdOipjAs-35" value="địa chỉ" style="ellipse;whiteSpace=wrap;html=1;" parent="1" vertex="1">
          <mxGeometry x="70" y="340" width="60" height="50" as="geometry" />
        </mxCell>
        <mxCell id="kn9OcYIsBigCMdOipjAs-36" value="" style="endArrow=none;html=1;rounded=0;exitX=0.321;exitY=0.979;exitDx=0;exitDy=0;exitPerimeter=0;entryX=0.638;entryY=0.017;entryDx=0;entryDy=0;entryPerimeter=0;" parent="1" source="kn9OcYIsBigCMdOipjAs-35" target="kn9OcYIsBigCMdOipjAs-10" edge="1">
          <mxGeometry width="50" height="50" relative="1" as="geometry">
            <mxPoint x="88" y="425" as="sourcePoint" />
            <mxPoint x="90" y="495" as="targetPoint" />
          </mxGeometry>
        </mxCell>
        <mxCell id="kn9OcYIsBigCMdOipjAs-38" value="" style="endArrow=none;html=1;rounded=0;exitX=1;exitY=0;exitDx=0;exitDy=0;entryX=0;entryY=0.5;entryDx=0;entryDy=0;" parent="1" source="kn9OcYIsBigCMdOipjAs-24" target="kn9OcYIsBigCMdOipjAs-11" edge="1">
          <mxGeometry width="50" height="50" relative="1" as="geometry">
            <mxPoint x="166" y="404" as="sourcePoint" />
            <mxPoint x="117" y="516" as="targetPoint" />
          </mxGeometry>
        </mxCell>
        <mxCell id="kn9OcYIsBigCMdOipjAs-46" value="1-1" style="edgeLabel;html=1;align=center;verticalAlign=middle;resizable=0;points=[];" parent="kn9OcYIsBigCMdOipjAs-38" vertex="1" connectable="0">
          <mxGeometry x="-0.1586" y="3" relative="1" as="geometry">
            <mxPoint as="offset" />
          </mxGeometry>
        </mxCell>
        <mxCell id="kn9OcYIsBigCMdOipjAs-40" value="có" style="rhombus;whiteSpace=wrap;html=1;" parent="1" vertex="1">
          <mxGeometry x="450" y="290" width="50" height="40" as="geometry" />
        </mxCell>
        <mxCell id="kn9OcYIsBigCMdOipjAs-41" value="" style="endArrow=none;html=1;rounded=0;exitX=0;exitY=0.5;exitDx=0;exitDy=0;entryX=1;entryY=0.75;entryDx=0;entryDy=0;" parent="1" source="kn9OcYIsBigCMdOipjAs-40" target="kn9OcYIsBigCMdOipjAs-11" edge="1">
          <mxGeometry width="50" height="50" relative="1" as="geometry">
            <mxPoint x="253" y="430" as="sourcePoint" />
            <mxPoint x="350" y="380" as="targetPoint" />
          </mxGeometry>
        </mxCell>
        <mxCell id="kn9OcYIsBigCMdOipjAs-60" value="0-n" style="edgeLabel;html=1;align=center;verticalAlign=middle;resizable=0;points=[];" parent="kn9OcYIsBigCMdOipjAs-41" vertex="1" connectable="0">
          <mxGeometry x="-0.1078" relative="1" as="geometry">
            <mxPoint as="offset" />
          </mxGeometry>
        </mxCell>
        <mxCell id="kn9OcYIsBigCMdOipjAs-43" value="Thân nhân" style="rounded=0;whiteSpace=wrap;html=1;" parent="1" vertex="1">
          <mxGeometry x="510" y="230" width="120" height="30" as="geometry" />
        </mxCell>
        <mxCell id="kn9OcYIsBigCMdOipjAs-44" value="" style="endArrow=none;html=1;rounded=0;exitX=0;exitY=0.5;exitDx=0;exitDy=0;" parent="1" source="kn9OcYIsBigCMdOipjAs-43" target="kn9OcYIsBigCMdOipjAs-40" edge="1">
          <mxGeometry width="50" height="50" relative="1" as="geometry">
            <mxPoint x="670" y="306" as="sourcePoint" />
            <mxPoint x="600" y="344" as="targetPoint" />
          </mxGeometry>
        </mxCell>
        <mxCell id="kn9OcYIsBigCMdOipjAs-61" value="1-n" style="edgeLabel;html=1;align=center;verticalAlign=middle;resizable=0;points=[];" parent="kn9OcYIsBigCMdOipjAs-44" vertex="1" connectable="0">
          <mxGeometry x="0.0994" y="-3" relative="1" as="geometry">
            <mxPoint as="offset" />
          </mxGeometry>
        </mxCell>
        <mxCell id="kn9OcYIsBigCMdOipjAs-48" value="địa chỉ" style="ellipse;whiteSpace=wrap;html=1;" parent="1" vertex="1">
          <mxGeometry x="680" y="230" width="60" height="40" as="geometry" />
        </mxCell>
        <mxCell id="kn9OcYIsBigCMdOipjAs-49" value="tên" style="ellipse;whiteSpace=wrap;html=1;" parent="1" vertex="1">
          <mxGeometry x="670" y="160" width="40" height="40" as="geometry" />
        </mxCell>
        <mxCell id="kn9OcYIsBigCMdOipjAs-50" value="mối quan hệ với nhân viên" style="ellipse;whiteSpace=wrap;html=1;" parent="1" vertex="1">
          <mxGeometry x="540" y="300" width="80" height="50" as="geometry" />
        </mxCell>
        <mxCell id="kn9OcYIsBigCMdOipjAs-51" value="" style="endArrow=none;html=1;rounded=0;entryX=1;entryY=0.25;entryDx=0;entryDy=0;" parent="1" source="kn9OcYIsBigCMdOipjAs-49" target="kn9OcYIsBigCMdOipjAs-43" edge="1">
          <mxGeometry width="50" height="50" relative="1" as="geometry">
            <mxPoint x="670" y="190" as="sourcePoint" />
            <mxPoint x="613" y="245" as="targetPoint" />
          </mxGeometry>
        </mxCell>
        <mxCell id="kn9OcYIsBigCMdOipjAs-52" value="" style="endArrow=none;html=1;rounded=0;exitX=0.019;exitY=0.358;exitDx=0;exitDy=0;exitPerimeter=0;" parent="1" source="kn9OcYIsBigCMdOipjAs-48" target="kn9OcYIsBigCMdOipjAs-43" edge="1">
          <mxGeometry width="50" height="50" relative="1" as="geometry">
            <mxPoint x="690" y="214" as="sourcePoint" />
            <mxPoint x="640" y="250" as="targetPoint" />
          </mxGeometry>
        </mxCell>
        <mxCell id="kn9OcYIsBigCMdOipjAs-53" value="" style="endArrow=none;html=1;rounded=0;exitX=0.269;exitY=0.077;exitDx=0;exitDy=0;exitPerimeter=0;" parent="1" source="kn9OcYIsBigCMdOipjAs-50" target="kn9OcYIsBigCMdOipjAs-40" edge="1">
          <mxGeometry width="50" height="50" relative="1" as="geometry">
            <mxPoint x="692" y="260" as="sourcePoint" />
            <mxPoint x="640" y="255" as="targetPoint" />
          </mxGeometry>
        </mxCell>
        <mxCell id="kn9OcYIsBigCMdOipjAs-54" value="tên" style="ellipse;whiteSpace=wrap;html=1;" parent="1" vertex="1">
          <mxGeometry x="260" y="250" width="40" height="30" as="geometry" />
        </mxCell>
        <mxCell id="kn9OcYIsBigCMdOipjAs-55" value="" style="endArrow=none;html=1;rounded=0;exitX=0.5;exitY=1;exitDx=0;exitDy=0;" parent="1" source="kn9OcYIsBigCMdOipjAs-54" target="kn9OcYIsBigCMdOipjAs-11" edge="1">
          <mxGeometry width="50" height="50" relative="1" as="geometry">
            <mxPoint x="166" y="404" as="sourcePoint" />
            <mxPoint x="320" y="360" as="targetPoint" />
          </mxGeometry>
        </mxCell>
        <mxCell id="kn9OcYIsBigCMdOipjAs-56" value="&lt;u&gt;mã nhân viên&lt;/u&gt;" style="ellipse;whiteSpace=wrap;html=1;" parent="1" vertex="1">
          <mxGeometry x="330" y="260" width="90" height="30" as="geometry" />
        </mxCell>
        <mxCell id="kn9OcYIsBigCMdOipjAs-57" value="" style="endArrow=none;html=1;rounded=0;entryX=0.5;entryY=0;entryDx=0;entryDy=0;" parent="1" source="kn9OcYIsBigCMdOipjAs-56" target="kn9OcYIsBigCMdOipjAs-11" edge="1">
          <mxGeometry width="50" height="50" relative="1" as="geometry">
            <mxPoint x="290" y="290" as="sourcePoint" />
            <mxPoint x="350" y="375" as="targetPoint" />
          </mxGeometry>
        </mxCell>
        <mxCell id="kn9OcYIsBigCMdOipjAs-58" value="có" style="rhombus;whiteSpace=wrap;html=1;" parent="1" vertex="1">
          <mxGeometry x="395" y="580" width="50" height="40" as="geometry" />
        </mxCell>
        <mxCell id="kn9OcYIsBigCMdOipjAs-59" value="" style="endArrow=none;html=1;rounded=0;" parent="1" source="kn9OcYIsBigCMdOipjAs-12" target="kn9OcYIsBigCMdOipjAs-58" edge="1">
          <mxGeometry width="50" height="50" relative="1" as="geometry">
            <mxPoint x="445" y="570" as="sourcePoint" />
            <mxPoint x="530" y="565" as="targetPoint" />
          </mxGeometry>
        </mxCell>
        <mxCell id="kn9OcYIsBigCMdOipjAs-62" value="1-1" style="edgeLabel;html=1;align=center;verticalAlign=middle;resizable=0;points=[];" parent="kn9OcYIsBigCMdOipjAs-59" vertex="1" connectable="0">
          <mxGeometry x="-0.0003" y="-4" relative="1" as="geometry">
            <mxPoint as="offset" />
          </mxGeometry>
        </mxCell>
        <mxCell id="kn9OcYIsBigCMdOipjAs-63" value="chủ nhân" style="rounded=0;whiteSpace=wrap;html=1;" parent="1" vertex="1">
          <mxGeometry x="430" y="640" width="120" height="30" as="geometry" />
        </mxCell>
        <mxCell id="kn9OcYIsBigCMdOipjAs-64" value="" style="endArrow=none;html=1;rounded=0;" parent="1" source="kn9OcYIsBigCMdOipjAs-58" target="kn9OcYIsBigCMdOipjAs-63" edge="1">
          <mxGeometry width="50" height="50" relative="1" as="geometry">
            <mxPoint x="455" y="580" as="sourcePoint" />
            <mxPoint x="397" y="630" as="targetPoint" />
          </mxGeometry>
        </mxCell>
        <mxCell id="kn9OcYIsBigCMdOipjAs-66" value="1-n" style="edgeLabel;html=1;align=center;verticalAlign=middle;resizable=0;points=[];" parent="kn9OcYIsBigCMdOipjAs-64" vertex="1" connectable="0">
          <mxGeometry x="-0.0806" y="-3" relative="1" as="geometry">
            <mxPoint as="offset" />
          </mxGeometry>
        </mxCell>
        <mxCell id="kn9OcYIsBigCMdOipjAs-67" value="tên" style="ellipse;whiteSpace=wrap;html=1;" parent="1" vertex="1">
          <mxGeometry x="590" y="700" width="40" height="40" as="geometry" />
        </mxCell>
        <mxCell id="kn9OcYIsBigCMdOipjAs-68" value="địa chỉ" style="ellipse;whiteSpace=wrap;html=1;" parent="1" vertex="1">
          <mxGeometry x="490" y="750" width="60" height="40" as="geometry" />
        </mxCell>
        <mxCell id="kn9OcYIsBigCMdOipjAs-69" value="sđt" style="ellipse;whiteSpace=wrap;html=1;" parent="1" vertex="1">
          <mxGeometry x="395" y="720" width="60" height="40" as="geometry" />
        </mxCell>
        <mxCell id="kn9OcYIsBigCMdOipjAs-70" value="" style="endArrow=none;html=1;rounded=0;entryX=0.5;entryY=1;entryDx=0;entryDy=0;exitX=0.25;exitY=0;exitDx=0;exitDy=0;exitPerimeter=0;" parent="1" source="kn9OcYIsBigCMdOipjAs-67" target="kn9OcYIsBigCMdOipjAs-63" edge="1">
          <mxGeometry width="50" height="50" relative="1" as="geometry">
            <mxPoint x="580" y="608" as="sourcePoint" />
            <mxPoint x="530" y="565" as="targetPoint" />
          </mxGeometry>
        </mxCell>
        <mxCell id="kn9OcYIsBigCMdOipjAs-71" value="" style="endArrow=none;html=1;rounded=0;entryX=0.5;entryY=1;entryDx=0;entryDy=0;exitX=0.5;exitY=0;exitDx=0;exitDy=0;" parent="1" source="kn9OcYIsBigCMdOipjAs-68" target="kn9OcYIsBigCMdOipjAs-63" edge="1">
          <mxGeometry width="50" height="50" relative="1" as="geometry">
            <mxPoint x="360" y="770" as="sourcePoint" />
            <mxPoint x="300" y="730" as="targetPoint" />
          </mxGeometry>
        </mxCell>
        <mxCell id="kn9OcYIsBigCMdOipjAs-72" value="" style="endArrow=none;html=1;rounded=0;entryX=0.5;entryY=1;entryDx=0;entryDy=0;exitX=1;exitY=0;exitDx=0;exitDy=0;" parent="1" source="kn9OcYIsBigCMdOipjAs-69" target="kn9OcYIsBigCMdOipjAs-63" edge="1">
          <mxGeometry width="50" height="50" relative="1" as="geometry">
            <mxPoint x="290" y="760" as="sourcePoint" />
            <mxPoint x="300" y="730" as="targetPoint" />
          </mxGeometry>
        </mxCell>
        <mxCell id="kn9OcYIsBigCMdOipjAs-74" value="làm trưởng" style="rhombus;whiteSpace=wrap;html=1;" parent="1" vertex="1">
          <mxGeometry x="220" y="430" width="80" height="70" as="geometry" />
        </mxCell>
        <mxCell id="kn9OcYIsBigCMdOipjAs-75" value="" style="endArrow=none;html=1;rounded=0;" parent="1" source="kn9OcYIsBigCMdOipjAs-74" target="kn9OcYIsBigCMdOipjAs-11" edge="1">
          <mxGeometry width="50" height="50" relative="1" as="geometry">
            <mxPoint x="190" y="371" as="sourcePoint" />
            <mxPoint x="300" y="390" as="targetPoint" />
          </mxGeometry>
        </mxCell>
        <mxCell id="kn9OcYIsBigCMdOipjAs-79" value="0-1" style="edgeLabel;html=1;align=center;verticalAlign=middle;resizable=0;points=[];" parent="kn9OcYIsBigCMdOipjAs-75" vertex="1" connectable="0">
          <mxGeometry x="-0.0271" y="-4" relative="1" as="geometry">
            <mxPoint as="offset" />
          </mxGeometry>
        </mxCell>
        <mxCell id="kn9OcYIsBigCMdOipjAs-77" value="" style="endArrow=none;html=1;rounded=0;" parent="1" source="kn9OcYIsBigCMdOipjAs-74" target="kn9OcYIsBigCMdOipjAs-10" edge="1">
          <mxGeometry width="50" height="50" relative="1" as="geometry">
            <mxPoint x="289" y="457" as="sourcePoint" />
            <mxPoint x="344" y="405" as="targetPoint" />
          </mxGeometry>
        </mxCell>
        <mxCell id="kn9OcYIsBigCMdOipjAs-78" value="1-1" style="edgeLabel;html=1;align=center;verticalAlign=middle;resizable=0;points=[];" parent="kn9OcYIsBigCMdOipjAs-77" vertex="1" connectable="0">
          <mxGeometry x="-0.1586" y="3" relative="1" as="geometry">
            <mxPoint as="offset" />
          </mxGeometry>
        </mxCell>
        <mxCell id="kn9OcYIsBigCMdOipjAs-80" value="&lt;u&gt;mã số chủ nhân&lt;/u&gt;" style="ellipse;whiteSpace=wrap;html=1;" parent="1" vertex="1">
          <mxGeometry x="610" y="615" width="90" height="55" as="geometry" />
        </mxCell>
        <mxCell id="kn9OcYIsBigCMdOipjAs-81" value="" style="endArrow=none;html=1;rounded=0;" parent="1" source="kn9OcYIsBigCMdOipjAs-80" target="kn9OcYIsBigCMdOipjAs-63" edge="1">
          <mxGeometry width="50" height="50" relative="1" as="geometry">
            <mxPoint x="610" y="710" as="sourcePoint" />
            <mxPoint x="500" y="680" as="targetPoint" />
          </mxGeometry>
        </mxCell>
        <mxCell id="kn9OcYIsBigCMdOipjAs-84" value="&lt;u&gt;mã số tn (auto id)&lt;/u&gt;" style="ellipse;whiteSpace=wrap;html=1;" parent="1" vertex="1">
          <mxGeometry x="660" y="295" width="90" height="30" as="geometry" />
        </mxCell>
        <mxCell id="kn9OcYIsBigCMdOipjAs-85" value="" style="endArrow=none;html=1;rounded=0;" parent="1" source="kn9OcYIsBigCMdOipjAs-84" target="kn9OcYIsBigCMdOipjAs-43" edge="1">
          <mxGeometry width="50" height="50" relative="1" as="geometry">
            <mxPoint x="691" y="254" as="sourcePoint" />
            <mxPoint x="640" y="255" as="targetPoint" />
          </mxGeometry>
        </mxCell>
        <mxCell id="T-1A6PaUoCYP1PUCDdtC-7" value="Đề tài" style="swimlane;fontStyle=0;childLayout=stackLayout;horizontal=1;startSize=30;horizontalStack=0;resizeParent=1;resizeParentMax=0;resizeLast=0;collapsible=1;marginBottom=0;whiteSpace=wrap;html=1;" vertex="1" parent="1">
          <mxGeometry x="40" y="940" width="140" height="120" as="geometry" />
        </mxCell>
        <mxCell id="T-1A6PaUoCYP1PUCDdtC-8" value="&lt;u&gt;mã đề tài&lt;/u&gt;" style="text;strokeColor=none;fillColor=none;align=left;verticalAlign=middle;spacingLeft=4;spacingRight=4;overflow=hidden;points=[[0,0.5],[1,0.5]];portConstraint=eastwest;rotatable=0;whiteSpace=wrap;html=1;" vertex="1" parent="T-1A6PaUoCYP1PUCDdtC-7">
          <mxGeometry y="30" width="140" height="30" as="geometry" />
        </mxCell>
        <mxCell id="T-1A6PaUoCYP1PUCDdtC-9" value="tên đề tài" style="text;strokeColor=none;fillColor=none;align=left;verticalAlign=middle;spacingLeft=4;spacingRight=4;overflow=hidden;points=[[0,0.5],[1,0.5]];portConstraint=eastwest;rotatable=0;whiteSpace=wrap;html=1;" vertex="1" parent="T-1A6PaUoCYP1PUCDdtC-7">
          <mxGeometry y="60" width="140" height="30" as="geometry" />
        </mxCell>
        <mxCell id="T-1A6PaUoCYP1PUCDdtC-10" value="lĩnh vực nghiên cứu" style="text;strokeColor=none;fillColor=none;align=left;verticalAlign=middle;spacingLeft=4;spacingRight=4;overflow=hidden;points=[[0,0.5],[1,0.5]];portConstraint=eastwest;rotatable=0;whiteSpace=wrap;html=1;" vertex="1" parent="T-1A6PaUoCYP1PUCDdtC-7">
          <mxGeometry y="90" width="140" height="30" as="geometry" />
        </mxCell>
        <mxCell id="T-1A6PaUoCYP1PUCDdtC-11" value="có" style="rhombus;whiteSpace=wrap;html=1;" vertex="1" parent="1">
          <mxGeometry x="240" y="975" width="50" height="50" as="geometry" />
        </mxCell>
        <mxCell id="T-1A6PaUoCYP1PUCDdtC-12" value="" style="endArrow=none;html=1;rounded=0;" edge="1" parent="1" source="T-1A6PaUoCYP1PUCDdtC-7" target="T-1A6PaUoCYP1PUCDdtC-11">
          <mxGeometry width="50" height="50" relative="1" as="geometry">
            <mxPoint x="200" y="960" as="sourcePoint" />
            <mxPoint x="250" y="910" as="targetPoint" />
          </mxGeometry>
        </mxCell>
        <mxCell id="T-1A6PaUoCYP1PUCDdtC-20" value="0-1" style="edgeLabel;html=1;align=center;verticalAlign=middle;resizable=0;points=[];" vertex="1" connectable="0" parent="T-1A6PaUoCYP1PUCDdtC-12">
          <mxGeometry x="-0.0556" y="-1" relative="1" as="geometry">
            <mxPoint as="offset" />
          </mxGeometry>
        </mxCell>
        <mxCell id="T-1A6PaUoCYP1PUCDdtC-13" value="Giáo viên hướng dẫn" style="swimlane;fontStyle=0;childLayout=stackLayout;horizontal=1;startSize=30;horizontalStack=0;resizeParent=1;resizeParentMax=0;resizeLast=0;collapsible=1;marginBottom=0;whiteSpace=wrap;html=1;" vertex="1" parent="1">
          <mxGeometry x="360" y="925" width="140" height="150" as="geometry" />
        </mxCell>
        <mxCell id="T-1A6PaUoCYP1PUCDdtC-14" value="&lt;u&gt;mã giáo viên&lt;/u&gt;" style="text;strokeColor=none;fillColor=none;align=left;verticalAlign=middle;spacingLeft=4;spacingRight=4;overflow=hidden;points=[[0,0.5],[1,0.5]];portConstraint=eastwest;rotatable=0;whiteSpace=wrap;html=1;" vertex="1" parent="T-1A6PaUoCYP1PUCDdtC-13">
          <mxGeometry y="30" width="140" height="30" as="geometry" />
        </mxCell>
        <mxCell id="T-1A6PaUoCYP1PUCDdtC-15" value="họ và tên&amp;nbsp;" style="text;strokeColor=none;fillColor=none;align=left;verticalAlign=middle;spacingLeft=4;spacingRight=4;overflow=hidden;points=[[0,0.5],[1,0.5]];portConstraint=eastwest;rotatable=0;whiteSpace=wrap;html=1;" vertex="1" parent="T-1A6PaUoCYP1PUCDdtC-13">
          <mxGeometry y="60" width="140" height="30" as="geometry" />
        </mxCell>
        <mxCell id="T-1A6PaUoCYP1PUCDdtC-29" value="học hàm" style="text;strokeColor=none;fillColor=none;align=left;verticalAlign=middle;spacingLeft=4;spacingRight=4;overflow=hidden;points=[[0,0.5],[1,0.5]];portConstraint=eastwest;rotatable=0;whiteSpace=wrap;html=1;" vertex="1" parent="T-1A6PaUoCYP1PUCDdtC-13">
          <mxGeometry y="90" width="140" height="30" as="geometry" />
        </mxCell>
        <mxCell id="T-1A6PaUoCYP1PUCDdtC-30" value="học vị" style="text;strokeColor=none;fillColor=none;align=left;verticalAlign=middle;spacingLeft=4;spacingRight=4;overflow=hidden;points=[[0,0.5],[1,0.5]];portConstraint=eastwest;rotatable=0;whiteSpace=wrap;html=1;" vertex="1" parent="T-1A6PaUoCYP1PUCDdtC-13">
          <mxGeometry y="120" width="140" height="30" as="geometry" />
        </mxCell>
        <mxCell id="T-1A6PaUoCYP1PUCDdtC-19" value="" style="endArrow=none;html=1;rounded=0;" edge="1" parent="1" source="T-1A6PaUoCYP1PUCDdtC-13" target="T-1A6PaUoCYP1PUCDdtC-11">
          <mxGeometry width="50" height="50" relative="1" as="geometry">
            <mxPoint x="140" y="1015" as="sourcePoint" />
            <mxPoint x="252" y="1023" as="targetPoint" />
          </mxGeometry>
        </mxCell>
        <mxCell id="T-1A6PaUoCYP1PUCDdtC-21" value="0-n" style="edgeLabel;html=1;align=center;verticalAlign=middle;resizable=0;points=[];" vertex="1" connectable="0" parent="T-1A6PaUoCYP1PUCDdtC-19">
          <mxGeometry x="0.2082" y="-3" relative="1" as="geometry">
            <mxPoint as="offset" />
          </mxGeometry>
        </mxCell>
        <mxCell id="T-1A6PaUoCYP1PUCDdtC-31" value="Sinh viên" style="swimlane;fontStyle=0;childLayout=stackLayout;horizontal=1;startSize=30;horizontalStack=0;resizeParent=1;resizeParentMax=0;resizeLast=0;collapsible=1;marginBottom=0;whiteSpace=wrap;html=1;" vertex="1" parent="1">
          <mxGeometry x="40" y="1210" width="140" height="120" as="geometry" />
        </mxCell>
        <mxCell id="T-1A6PaUoCYP1PUCDdtC-32" value="&lt;u&gt;mã sinh viên&lt;/u&gt;" style="text;strokeColor=none;fillColor=none;align=left;verticalAlign=middle;spacingLeft=4;spacingRight=4;overflow=hidden;points=[[0,0.5],[1,0.5]];portConstraint=eastwest;rotatable=0;whiteSpace=wrap;html=1;" vertex="1" parent="T-1A6PaUoCYP1PUCDdtC-31">
          <mxGeometry y="30" width="140" height="30" as="geometry" />
        </mxCell>
        <mxCell id="T-1A6PaUoCYP1PUCDdtC-33" value="họ và tên" style="text;strokeColor=none;fillColor=none;align=left;verticalAlign=middle;spacingLeft=4;spacingRight=4;overflow=hidden;points=[[0,0.5],[1,0.5]];portConstraint=eastwest;rotatable=0;whiteSpace=wrap;html=1;" vertex="1" parent="T-1A6PaUoCYP1PUCDdtC-31">
          <mxGeometry y="60" width="140" height="30" as="geometry" />
        </mxCell>
        <mxCell id="T-1A6PaUoCYP1PUCDdtC-34" value="lớp học" style="text;strokeColor=none;fillColor=none;align=left;verticalAlign=middle;spacingLeft=4;spacingRight=4;overflow=hidden;points=[[0,0.5],[1,0.5]];portConstraint=eastwest;rotatable=0;whiteSpace=wrap;html=1;" vertex="1" parent="T-1A6PaUoCYP1PUCDdtC-31">
          <mxGeometry y="90" width="140" height="30" as="geometry" />
        </mxCell>
        <mxCell id="T-1A6PaUoCYP1PUCDdtC-35" value="có" style="rhombus;whiteSpace=wrap;html=1;" vertex="1" parent="1">
          <mxGeometry x="85" y="1110" width="50" height="50" as="geometry" />
        </mxCell>
        <mxCell id="T-1A6PaUoCYP1PUCDdtC-36" value="" style="endArrow=none;html=1;rounded=0;" edge="1" parent="1" source="T-1A6PaUoCYP1PUCDdtC-35" target="T-1A6PaUoCYP1PUCDdtC-7">
          <mxGeometry width="50" height="50" relative="1" as="geometry">
            <mxPoint x="200" y="1190" as="sourcePoint" />
            <mxPoint x="250" y="1140" as="targetPoint" />
          </mxGeometry>
        </mxCell>
        <mxCell id="T-1A6PaUoCYP1PUCDdtC-40" value="1-5" style="edgeLabel;html=1;align=center;verticalAlign=middle;resizable=0;points=[];" vertex="1" connectable="0" parent="T-1A6PaUoCYP1PUCDdtC-36">
          <mxGeometry x="0.1771" y="1" relative="1" as="geometry">
            <mxPoint as="offset" />
          </mxGeometry>
        </mxCell>
        <mxCell id="T-1A6PaUoCYP1PUCDdtC-37" value="" style="endArrow=none;html=1;rounded=0;" edge="1" parent="1" source="T-1A6PaUoCYP1PUCDdtC-35" target="T-1A6PaUoCYP1PUCDdtC-31">
          <mxGeometry width="50" height="50" relative="1" as="geometry">
            <mxPoint x="260" y="1190" as="sourcePoint" />
            <mxPoint x="310" y="1140" as="targetPoint" />
          </mxGeometry>
        </mxCell>
        <mxCell id="T-1A6PaUoCYP1PUCDdtC-41" value="0-n" style="edgeLabel;html=1;align=center;verticalAlign=middle;resizable=0;points=[];" vertex="1" connectable="0" parent="T-1A6PaUoCYP1PUCDdtC-37">
          <mxGeometry x="-0.083" y="-2" relative="1" as="geometry">
            <mxPoint y="1" as="offset" />
          </mxGeometry>
        </mxCell>
        <mxCell id="T-1A6PaUoCYP1PUCDdtC-42" value="Đầu sách" style="swimlane;fontStyle=0;childLayout=stackLayout;horizontal=1;startSize=30;horizontalStack=0;resizeParent=1;resizeParentMax=0;resizeLast=0;collapsible=1;marginBottom=0;whiteSpace=wrap;html=1;" vertex="1" parent="1">
          <mxGeometry x="880" y="40" width="140" height="90" as="geometry" />
        </mxCell>
        <mxCell id="T-1A6PaUoCYP1PUCDdtC-43" value="&lt;u&gt;Mã đầu sách&lt;/u&gt;" style="text;strokeColor=none;fillColor=none;align=left;verticalAlign=middle;spacingLeft=4;spacingRight=4;overflow=hidden;points=[[0,0.5],[1,0.5]];portConstraint=eastwest;rotatable=0;whiteSpace=wrap;html=1;" vertex="1" parent="T-1A6PaUoCYP1PUCDdtC-42">
          <mxGeometry y="30" width="140" height="30" as="geometry" />
        </mxCell>
        <mxCell id="T-1A6PaUoCYP1PUCDdtC-44" value="Tên đầu sách" style="text;strokeColor=none;fillColor=none;align=left;verticalAlign=middle;spacingLeft=4;spacingRight=4;overflow=hidden;points=[[0,0.5],[1,0.5]];portConstraint=eastwest;rotatable=0;whiteSpace=wrap;html=1;" vertex="1" parent="T-1A6PaUoCYP1PUCDdtC-42">
          <mxGeometry y="60" width="140" height="30" as="geometry" />
        </mxCell>
        <mxCell id="T-1A6PaUoCYP1PUCDdtC-46" value="Tác giả" style="swimlane;fontStyle=0;childLayout=stackLayout;horizontal=1;startSize=30;horizontalStack=0;resizeParent=1;resizeParentMax=0;resizeLast=0;collapsible=1;marginBottom=0;whiteSpace=wrap;html=1;" vertex="1" parent="1">
          <mxGeometry x="1260" y="30" width="140" height="150" as="geometry" />
        </mxCell>
        <mxCell id="T-1A6PaUoCYP1PUCDdtC-47" value="&lt;u&gt;Mã tác giả&lt;/u&gt;" style="text;strokeColor=none;fillColor=none;align=left;verticalAlign=middle;spacingLeft=4;spacingRight=4;overflow=hidden;points=[[0,0.5],[1,0.5]];portConstraint=eastwest;rotatable=0;whiteSpace=wrap;html=1;" vertex="1" parent="T-1A6PaUoCYP1PUCDdtC-46">
          <mxGeometry y="30" width="140" height="30" as="geometry" />
        </mxCell>
        <mxCell id="T-1A6PaUoCYP1PUCDdtC-48" value="Tên tác giả" style="text;strokeColor=none;fillColor=none;align=left;verticalAlign=middle;spacingLeft=4;spacingRight=4;overflow=hidden;points=[[0,0.5],[1,0.5]];portConstraint=eastwest;rotatable=0;whiteSpace=wrap;html=1;" vertex="1" parent="T-1A6PaUoCYP1PUCDdtC-46">
          <mxGeometry y="60" width="140" height="30" as="geometry" />
        </mxCell>
        <mxCell id="T-1A6PaUoCYP1PUCDdtC-49" value="Năm sinh" style="text;strokeColor=none;fillColor=none;align=left;verticalAlign=middle;spacingLeft=4;spacingRight=4;overflow=hidden;points=[[0,0.5],[1,0.5]];portConstraint=eastwest;rotatable=0;whiteSpace=wrap;html=1;" vertex="1" parent="T-1A6PaUoCYP1PUCDdtC-46">
          <mxGeometry y="90" width="140" height="30" as="geometry" />
        </mxCell>
        <mxCell id="T-1A6PaUoCYP1PUCDdtC-50" value="Giới tính" style="text;strokeColor=none;fillColor=none;align=left;verticalAlign=middle;spacingLeft=4;spacingRight=4;overflow=hidden;points=[[0,0.5],[1,0.5]];portConstraint=eastwest;rotatable=0;whiteSpace=wrap;html=1;" vertex="1" parent="T-1A6PaUoCYP1PUCDdtC-46">
          <mxGeometry y="120" width="140" height="30" as="geometry" />
        </mxCell>
        <mxCell id="T-1A6PaUoCYP1PUCDdtC-51" value="Quyền sách" style="swimlane;fontStyle=0;childLayout=stackLayout;horizontal=1;startSize=30;horizontalStack=0;resizeParent=1;resizeParentMax=0;resizeLast=0;collapsible=1;marginBottom=0;whiteSpace=wrap;html=1;" vertex="1" parent="1">
          <mxGeometry x="880" y="362.5" width="140" height="120" as="geometry" />
        </mxCell>
        <mxCell id="T-1A6PaUoCYP1PUCDdtC-52" value="&lt;u&gt;Mã quyển sách&lt;/u&gt;" style="text;strokeColor=none;fillColor=none;align=left;verticalAlign=middle;spacingLeft=4;spacingRight=4;overflow=hidden;points=[[0,0.5],[1,0.5]];portConstraint=eastwest;rotatable=0;whiteSpace=wrap;html=1;" vertex="1" parent="T-1A6PaUoCYP1PUCDdtC-51">
          <mxGeometry y="30" width="140" height="30" as="geometry" />
        </mxCell>
        <mxCell id="T-1A6PaUoCYP1PUCDdtC-53" value="Trạng thái (mượn/còn)" style="text;strokeColor=none;fillColor=none;align=left;verticalAlign=middle;spacingLeft=4;spacingRight=4;overflow=hidden;points=[[0,0.5],[1,0.5]];portConstraint=eastwest;rotatable=0;whiteSpace=wrap;html=1;" vertex="1" parent="T-1A6PaUoCYP1PUCDdtC-51">
          <mxGeometry y="60" width="140" height="30" as="geometry" />
        </mxCell>
        <mxCell id="T-1A6PaUoCYP1PUCDdtC-54" value="Vị trí" style="text;strokeColor=none;fillColor=none;align=left;verticalAlign=middle;spacingLeft=4;spacingRight=4;overflow=hidden;points=[[0,0.5],[1,0.5]];portConstraint=eastwest;rotatable=0;whiteSpace=wrap;html=1;" vertex="1" parent="T-1A6PaUoCYP1PUCDdtC-51">
          <mxGeometry y="90" width="140" height="30" as="geometry" />
        </mxCell>
        <mxCell id="T-1A6PaUoCYP1PUCDdtC-55" value="Người đọc" style="swimlane;fontStyle=0;childLayout=stackLayout;horizontal=1;startSize=30;horizontalStack=0;resizeParent=1;resizeParentMax=0;resizeLast=0;collapsible=1;marginBottom=0;whiteSpace=wrap;html=1;" vertex="1" parent="1">
          <mxGeometry x="1260" y="317.5" width="140" height="210" as="geometry" />
        </mxCell>
        <mxCell id="T-1A6PaUoCYP1PUCDdtC-56" value="&lt;u&gt;Mã người đọc&lt;/u&gt;" style="text;strokeColor=none;fillColor=none;align=left;verticalAlign=middle;spacingLeft=4;spacingRight=4;overflow=hidden;points=[[0,0.5],[1,0.5]];portConstraint=eastwest;rotatable=0;whiteSpace=wrap;html=1;" vertex="1" parent="T-1A6PaUoCYP1PUCDdtC-55">
          <mxGeometry y="30" width="140" height="30" as="geometry" />
        </mxCell>
        <mxCell id="T-1A6PaUoCYP1PUCDdtC-57" value="Năm sinh" style="text;strokeColor=none;fillColor=none;align=left;verticalAlign=middle;spacingLeft=4;spacingRight=4;overflow=hidden;points=[[0,0.5],[1,0.5]];portConstraint=eastwest;rotatable=0;whiteSpace=wrap;html=1;" vertex="1" parent="T-1A6PaUoCYP1PUCDdtC-55">
          <mxGeometry y="60" width="140" height="30" as="geometry" />
        </mxCell>
        <mxCell id="T-1A6PaUoCYP1PUCDdtC-59" value="G&lt;span style=&quot;color: rgba(0, 0, 0, 0); font-family: monospace; font-size: 0px; text-wrap-mode: nowrap;&quot;&gt;%3CmxGraphModel%3E%3Croot%3E%3CmxCell%20id%3D%220%22%2F%3E%3CmxCell%20id%3D%221%22%20parent%3D%220%22%2F%3E%3CmxCell%20id%3D%222%22%20value%3D%22T%C3%AAn%20t%C3%A1c%20gi%E1%BA%A3%22%20style%3D%22text%3BstrokeColor%3Dnone%3BfillColor%3Dnone%3Balign%3Dleft%3BverticalAlign%3Dmiddle%3BspacingLeft%3D4%3BspacingRight%3D4%3Boverflow%3Dhidden%3Bpoints%3D%5B%5B0%2C0.5%5D%2C%5B1%2C0.5%5D%5D%3BportConstraint%3Deastwest%3Brotatable%3D0%3BwhiteSpace%3Dwrap%3Bhtml%3D1%3B%22%20vertex%3D%221%22%20parent%3D%221%22%3E%3CmxGeometry%20x%3D%221120%22%20y%3D%22410%22%20width%3D%22140%22%20height%3D%2230%22%20as%3D%22geometry%22%2F%3E%3C%2FmxCell%3E%3C%2Froot%3E%3C%2FmxGraphModel%3E&lt;/span&gt;&lt;span style=&quot;color: rgba(0, 0, 0, 0); font-family: monospace; font-size: 0px; text-wrap-mode: nowrap;&quot;&gt;%3CmxGraphModel%3E%3Croot%3E%3CmxCell%20id%3D%220%22%2F%3E%3CmxCell%20id%3D%221%22%20parent%3D%220%22%2F%3E%3CmxCell%20id%3D%222%22%20value%3D%22T%C3%AAn%20t%C3%A1c%20gi%E1%BA%A3%22%20style%3D%22text%3BstrokeColor%3Dnone%3BfillColor%3Dnone%3Balign%3Dleft%3BverticalAlign%3Dmiddle%3BspacingLeft%3D4%3BspacingRight%3D4%3Boverflow%3Dhidden%3Bpoints%3D%5B%5B0%2C0.5%5D%2C%5B1%2C0.5%5D%5D%3BportConstraint%3Deastwest%3Brotatable%3D0%3BwhiteSpace%3Dwrap%3Bhtml%3D1%3B%22%20vertex%3D%221%22%20parent%3D%221%22%3E%3CmxGeometry%20x%3D%221120%22%20y%3D%22410%22%20width%3D%22140%22%20height%3D%2230%22%20as%3D%22geometry%22%2F%3E%3C%2FmxCell%3E%3C%2Froot%3E%3C%2FmxGraphModel%3E&lt;/span&gt;iới tính&amp;nbsp;" style="text;strokeColor=none;fillColor=none;align=left;verticalAlign=middle;spacingLeft=4;spacingRight=4;overflow=hidden;points=[[0,0.5],[1,0.5]];portConstraint=eastwest;rotatable=0;whiteSpace=wrap;html=1;" vertex="1" parent="T-1A6PaUoCYP1PUCDdtC-55">
          <mxGeometry y="90" width="140" height="30" as="geometry" />
        </mxCell>
        <mxCell id="T-1A6PaUoCYP1PUCDdtC-60" value="Tên&amp;nbsp;" style="text;strokeColor=none;fillColor=none;align=left;verticalAlign=middle;spacingLeft=4;spacingRight=4;overflow=hidden;points=[[0,0.5],[1,0.5]];portConstraint=eastwest;rotatable=0;whiteSpace=wrap;html=1;" vertex="1" parent="T-1A6PaUoCYP1PUCDdtC-55">
          <mxGeometry y="120" width="140" height="30" as="geometry" />
        </mxCell>
        <mxCell id="T-1A6PaUoCYP1PUCDdtC-61" value="Số điện thoại&lt;span style=&quot;color: rgba(0, 0, 0, 0); font-family: monospace; font-size: 0px; text-wrap-mode: nowrap;&quot;&gt;%3CmxGraphModel%3E%3Croot%3E%3CmxCell%20id%3D%220%22%2F%3E%3CmxCell%20id%3D%221%22%20parent%3D%220%22%2F%3E%3CmxCell%20id%3D%222%22%20value%3D%22G%26lt%3Bspan%20style%3D%26quot%3Bcolor%3A%20rgba(0%2C%200%2C%200%2C%200)%3B%20font-family%3A%20monospace%3B%20font-size%3A%200px%3B%20text-wrap-mode%3A%20nowrap%3B%26quot%3B%26gt%3B%253CmxGraphModel%253E%253Croot%253E%253CmxCell%2520id%253D%25220%2522%252F%253E%253CmxCell%2520id%253D%25221%2522%2520parent%253D%25220%2522%252F%253E%253CmxCell%2520id%253D%25222%2522%2520value%253D%2522T%25C3%25AAn%2520t%25C3%25A1c%2520gi%25E1%25BA%25A3%2522%2520style%253D%2522text%253BstrokeColor%253Dnone%253BfillColor%253Dnone%253Balign%253Dleft%253BverticalAlign%253Dmiddle%253BspacingLeft%253D4%253BspacingRight%253D4%253Boverflow%253Dhidden%253Bpoints%253D%255B%255B0%252C0.5%255D%252C%255B1%252C0.5%255D%255D%253BportConstraint%253Deastwest%253Brotatable%253D0%253BwhiteSpace%253Dwrap%253Bhtml%253D1%253B%2522%2520vertex%253D%25221%2522%2520parent%253D%25221%2522%253E%253CmxGeometry%2520x%253D%25221120%2522%2520y%253D%2522410%2522%2520width%253D%2522140%2522%2520height%253D%252230%2522%2520as%253D%2522geometry%2522%252F%253E%253C%252FmxCell%253E%253C%252Froot%253E%253C%252FmxGraphModel%253E%26lt%3B%2Fspan%26gt%3B%26lt%3Bspan%20style%3D%26quot%3Bcolor%3A%20rgba(0%2C%200%2C%200%2C%200)%3B%20font-family%3A%20monospace%3B%20font-size%3A%200px%3B%20text-wrap-mode%3A%20nowrap%3B%26quot%3B%26gt%3B%253CmxGraphModel%253E%253Croot%253E%253CmxCell%2520id%253D%25220%2522%252F%253E%253CmxCell%2520id%253D%25221%2522%2520parent%253D%25220%2522%252F%253E%253CmxCell%2520id%253D%25222%2522%2520value%253D%2522T%25C3%25AAn%2520t%25C3%25A1c%2520gi%25E1%25BA%25A3%2522%2520style%253D%2522text%253BstrokeColor%253Dnone%253BfillColor%253Dnone%253Balign%253Dleft%253BverticalAlign%253Dmiddle%253BspacingLeft%253D4%253BspacingRight%253D4%253Boverflow%253Dhidden%253Bpoints%253D%255B%255B0%252C0.5%255D%252C%255B1%252C0.5%255D%255D%253BportConstraint%253Deastwest%253Brotatable%253D0%253BwhiteSpace%253Dwrap%253Bhtml%253D1%253B%2522%2520vertex%253D%25221%2522%2520parent%253D%25221%2522%253E%253CmxGeometry%2520x%253D%25221120%2522%2520y%253D%2522410%2522%2520width%253D%2522140%2522%2520height%253D%252230%2522%2520as%253D%2522geometry%2522%252F%253E%253C%252FmxCell%253E%253C%252Froot%253E%253C%252FmxGraphModel%253E%26lt%3B%2Fspan%26gt%3Bi%E1%BB%9Bi%20t%C3%ADnh%26amp%3Bnbsp%3B%22%20style%3D%22text%3BstrokeColor%3Dnone%3BfillColor%3Dnone%3Balign%3Dleft%3BverticalAlign%3Dmiddle%3BspacingLeft%3D4%3BspacingRight%3D4%3Boverflow%3Dhidden%3Bpoints%3D%5B%5B0%2C0.5%5D%2C%5B1%2C0.5%5D%5D%3BportConstraint%3Deastwest%3Brotatable%3D0%3BwhiteSpace%3Dwrap%3Bhtml%3D1%3B%22%20vertex%3D%221%22%20parent%3D%221%22%3E%3CmxGeometry%20x%3D%221120%22%20y%3D%22640%22%20width%3D%22140%22%20height%3D%2230%22%20as%3D%22geometry%22%2F%3E%3C%2FmxCell%3E%3C%2Froot%3E%3C%2FmxGraphModel%3E&lt;/span&gt;" style="text;strokeColor=none;fillColor=none;align=left;verticalAlign=middle;spacingLeft=4;spacingRight=4;overflow=hidden;points=[[0,0.5],[1,0.5]];portConstraint=eastwest;rotatable=0;whiteSpace=wrap;html=1;" vertex="1" parent="T-1A6PaUoCYP1PUCDdtC-55">
          <mxGeometry y="150" width="140" height="30" as="geometry" />
        </mxCell>
        <mxCell id="T-1A6PaUoCYP1PUCDdtC-58" value="CMND" style="text;strokeColor=none;fillColor=none;align=left;verticalAlign=middle;spacingLeft=4;spacingRight=4;overflow=hidden;points=[[0,0.5],[1,0.5]];portConstraint=eastwest;rotatable=0;whiteSpace=wrap;html=1;" vertex="1" parent="T-1A6PaUoCYP1PUCDdtC-55">
          <mxGeometry y="180" width="140" height="30" as="geometry" />
        </mxCell>
        <mxCell id="T-1A6PaUoCYP1PUCDdtC-64" value="mượn" style="rhombus;whiteSpace=wrap;html=1;" vertex="1" parent="1">
          <mxGeometry x="1110" y="395" width="60" height="57" as="geometry" />
        </mxCell>
        <mxCell id="T-1A6PaUoCYP1PUCDdtC-65" value="" style="endArrow=none;html=1;rounded=0;" edge="1" parent="1" source="T-1A6PaUoCYP1PUCDdtC-51" target="T-1A6PaUoCYP1PUCDdtC-64">
          <mxGeometry width="50" height="50" relative="1" as="geometry">
            <mxPoint x="1120" y="310" as="sourcePoint" />
            <mxPoint x="1170" y="260" as="targetPoint" />
          </mxGeometry>
        </mxCell>
        <mxCell id="T-1A6PaUoCYP1PUCDdtC-69" value="1-1" style="edgeLabel;html=1;align=center;verticalAlign=middle;resizable=0;points=[];" vertex="1" connectable="0" parent="T-1A6PaUoCYP1PUCDdtC-65">
          <mxGeometry x="-0.0085" y="-1" relative="1" as="geometry">
            <mxPoint as="offset" />
          </mxGeometry>
        </mxCell>
        <mxCell id="T-1A6PaUoCYP1PUCDdtC-67" value="" style="endArrow=none;html=1;rounded=0;" edge="1" parent="1" source="T-1A6PaUoCYP1PUCDdtC-64" target="T-1A6PaUoCYP1PUCDdtC-55">
          <mxGeometry width="50" height="50" relative="1" as="geometry">
            <mxPoint x="1170" y="330" as="sourcePoint" />
            <mxPoint x="1220" y="280" as="targetPoint" />
          </mxGeometry>
        </mxCell>
        <mxCell id="T-1A6PaUoCYP1PUCDdtC-68" value="1-n" style="edgeLabel;html=1;align=center;verticalAlign=middle;resizable=0;points=[];" vertex="1" connectable="0" parent="T-1A6PaUoCYP1PUCDdtC-67">
          <mxGeometry x="-0.18" y="1" relative="1" as="geometry">
            <mxPoint as="offset" />
          </mxGeometry>
        </mxCell>
        <mxCell id="T-1A6PaUoCYP1PUCDdtC-70" value="viết" style="rhombus;whiteSpace=wrap;html=1;" vertex="1" parent="1">
          <mxGeometry x="1115" y="240" width="50" height="40" as="geometry" />
        </mxCell>
        <mxCell id="T-1A6PaUoCYP1PUCDdtC-71" value="" style="endArrow=none;html=1;rounded=0;" edge="1" parent="1" source="T-1A6PaUoCYP1PUCDdtC-51" target="T-1A6PaUoCYP1PUCDdtC-70">
          <mxGeometry width="50" height="50" relative="1" as="geometry">
            <mxPoint x="1090" y="370" as="sourcePoint" />
            <mxPoint x="1140" y="320" as="targetPoint" />
          </mxGeometry>
        </mxCell>
        <mxCell id="T-1A6PaUoCYP1PUCDdtC-73" value="1-n" style="edgeLabel;html=1;align=center;verticalAlign=middle;resizable=0;points=[];" vertex="1" connectable="0" parent="T-1A6PaUoCYP1PUCDdtC-71">
          <mxGeometry x="0.0669" y="2" relative="1" as="geometry">
            <mxPoint as="offset" />
          </mxGeometry>
        </mxCell>
        <mxCell id="T-1A6PaUoCYP1PUCDdtC-72" value="" style="endArrow=none;html=1;rounded=0;" edge="1" parent="1" source="T-1A6PaUoCYP1PUCDdtC-46" target="T-1A6PaUoCYP1PUCDdtC-70">
          <mxGeometry width="50" height="50" relative="1" as="geometry">
            <mxPoint x="1016" y="373" as="sourcePoint" />
            <mxPoint x="1139" y="241" as="targetPoint" />
          </mxGeometry>
        </mxCell>
        <mxCell id="T-1A6PaUoCYP1PUCDdtC-74" value="1-n" style="edgeLabel;html=1;align=center;verticalAlign=middle;resizable=0;points=[];" vertex="1" connectable="0" parent="T-1A6PaUoCYP1PUCDdtC-72">
          <mxGeometry x="-0.0556" y="1" relative="1" as="geometry">
            <mxPoint as="offset" />
          </mxGeometry>
        </mxCell>
        <mxCell id="T-1A6PaUoCYP1PUCDdtC-75" value="thuộc" style="rhombus;whiteSpace=wrap;html=1;" vertex="1" parent="1">
          <mxGeometry x="925" y="235" width="50" height="50" as="geometry" />
        </mxCell>
        <mxCell id="T-1A6PaUoCYP1PUCDdtC-76" value="" style="endArrow=none;html=1;rounded=0;" edge="1" parent="1" source="T-1A6PaUoCYP1PUCDdtC-75" target="T-1A6PaUoCYP1PUCDdtC-51">
          <mxGeometry width="50" height="50" relative="1" as="geometry">
            <mxPoint x="1070" y="200" as="sourcePoint" />
            <mxPoint x="1120" y="150" as="targetPoint" />
          </mxGeometry>
        </mxCell>
        <mxCell id="T-1A6PaUoCYP1PUCDdtC-78" value="1-1" style="edgeLabel;html=1;align=center;verticalAlign=middle;resizable=0;points=[];" vertex="1" connectable="0" parent="T-1A6PaUoCYP1PUCDdtC-76">
          <mxGeometry x="-0.089" y="-2" relative="1" as="geometry">
            <mxPoint as="offset" />
          </mxGeometry>
        </mxCell>
        <mxCell id="T-1A6PaUoCYP1PUCDdtC-77" value="" style="endArrow=none;html=1;rounded=0;" edge="1" parent="1" source="T-1A6PaUoCYP1PUCDdtC-42" target="T-1A6PaUoCYP1PUCDdtC-75">
          <mxGeometry width="50" height="50" relative="1" as="geometry">
            <mxPoint x="1020" y="202" as="sourcePoint" />
            <mxPoint x="1020" y="280" as="targetPoint" />
          </mxGeometry>
        </mxCell>
        <mxCell id="T-1A6PaUoCYP1PUCDdtC-80" value="1-n" style="edgeLabel;html=1;align=center;verticalAlign=middle;resizable=0;points=[];" vertex="1" connectable="0" parent="T-1A6PaUoCYP1PUCDdtC-77">
          <mxGeometry x="-0.082" y="-1" relative="1" as="geometry">
            <mxPoint as="offset" />
          </mxGeometry>
        </mxCell>
      </root>
    </mxGraphModel>
  </diagram>
</mxfile>
